<?xml version="1.0" standalone="no"?>
<!DOCTYPE svg PUBLIC "-//W3C//DTD SVG 20010904//EN"
 "http://www.w3.org/TR/2001/REC-SVG-20010904/DTD/svg10.dtd">
<svg version="1.0" xmlns="http://www.w3.org/2000/svg"
 width="721.000000pt" height="721.000000pt" viewBox="0 0 721.000000 721.000000"
 preserveAspectRatio="xMidYMid meet">
<metadata>
Created by potrace 1.11, written by Peter Selinger 2001-2013
</metadata>
<g transform="translate(0.000000,721.000000) scale(0.100000,-0.100000)"
fill="#000000" stroke="none">
<path d="M986 7184 c-244 -44 -467 -164 -643 -347 -196 -204 -305 -438 -333
-720 -8 -81 -10 -803 -8 -2592 4 -2712 0 -2514 59 -2695 118 -357 410 -649
769 -768 180 -60 -18 -56 2695 -60 1680 -2 2515 0 2590 8 274 26 516 136 714
325 187 178 299 381 351 634 20 98 20 132 20 2629 0 2197 -2 2541 -15 2615
-86 493 -478 886 -969 972 -78 13 -385 15 -2620 14 -2146 -1 -2543 -3 -2610
-15z m2320 -2814 c196 -668 359 -1220 363 -1227 3 -6 166 534 362 1200 l356
1212 593 3 592 2 -5 -22 c-4 -13 -313 -906 -688 -1986 l-682 -1962 -610 2
-610 3 -672 1930 c-370 1062 -671 1932 -668 1934 2 3 295 39 651 81 575 68
648 75 654 61 5 -9 168 -563 364 -1231z"/>
</g>
</svg>
